<svg width="23.781334" height="19.335693" viewBox="0 0 23.7813 19.3357" fill="none" xmlns="http://www.w3.org/2000/svg" xmlns:xlink="http://www.w3.org/1999/xlink">
	<desc>
			Created with Pixso.
	</desc>
	<defs/>
	<path id="Vector" d="M23.78 2.29C22.88 2.68 21.94 2.94 20.97 3.06C21.99 2.45 22.76 1.49 23.12 0.36C22.16 0.93 21.11 1.33 20.02 1.54C19.29 0.76 18.31 0.24 17.25 0.06C16.19 -0.12 15.1 0.06 14.15 0.57C13.21 1.08 12.45 1.89 12.01 2.87C11.57 3.85 11.46 4.95 11.71 5.99C9.77 5.89 7.87 5.39 6.14 4.51C4.4 3.63 2.88 2.4 1.65 0.89C1.22 1.64 0.99 2.49 0.99 3.35C0.99 5.04 1.85 6.53 3.16 7.41C2.39 7.38 1.63 7.17 0.95 6.8L0.95 6.86C0.95 7.99 1.34 9.08 2.05 9.95C2.77 10.82 3.76 11.42 4.86 11.64C4.15 11.84 3.39 11.87 2.66 11.73C2.97 12.7 3.58 13.55 4.4 14.15C5.21 14.76 6.2 15.1 7.22 15.12C6.21 15.91 5.05 16.5 3.81 16.85C2.57 17.19 1.27 17.29 0 17.14C2.23 18.57 4.82 19.33 7.47 19.33C16.45 19.33 21.36 11.9 21.36 5.45C21.36 5.24 21.35 5.03 21.34 4.82C22.3 4.13 23.12 3.27 23.78 2.29L23.78 2.29Z" fill="#888888" fill-opacity="1.000000" fill-rule="nonzero"/>
</svg>
