<svg width="15.366211" height="15.360107" viewBox="0 0 15.3662 15.3601" fill="none" xmlns="http://www.w3.org/2000/svg" xmlns:xlink="http://www.w3.org/1999/xlink">
	<desc>
			Created with Pixso.
	</desc>
	<defs/>
	<path id="Vector" d="M11.53 10.41C12.52 9.14 12.99 7.54 12.84 5.93C12.68 4.33 11.93 2.84 10.72 1.78C9.51 0.71 7.94 0.15 6.33 0.2C4.72 0.25 3.19 0.91 2.05 2.05C0.91 3.19 0.25 4.72 0.2 6.33C0.15 7.94 0.71 9.51 1.78 10.72C2.85 11.93 4.33 12.68 5.94 12.83C7.54 12.99 9.14 12.52 10.42 11.53L10.45 11.56L13.81 14.92C13.88 15 13.97 15.05 14.07 15.09C14.16 15.13 14.27 15.16 14.37 15.16C14.47 15.16 14.58 15.13 14.67 15.09C14.77 15.05 14.86 15 14.93 14.92C15 14.85 15.06 14.76 15.1 14.67C15.14 14.57 15.16 14.47 15.16 14.36C15.16 14.26 15.14 14.16 15.1 14.06C15.06 13.96 15 13.88 14.93 13.8L11.57 10.44C11.56 10.43 11.55 10.42 11.53 10.41ZM9.89 3.17C10.34 3.61 10.69 4.13 10.94 4.71C11.18 5.29 11.31 5.91 11.31 6.53C11.31 7.16 11.19 7.78 10.95 8.36C10.71 8.94 10.36 9.47 9.92 9.91C9.47 10.36 8.95 10.71 8.37 10.95C7.79 11.18 7.17 11.31 6.54 11.3C5.91 11.3 5.29 11.17 4.72 10.93C4.14 10.69 3.61 10.33 3.17 9.88C2.29 8.99 1.8 7.79 1.81 6.53C1.81 5.28 2.31 4.08 3.2 3.19C4.09 2.31 5.29 1.81 6.54 1.8C7.79 1.8 9 2.29 9.89 3.17Z" fill="#FFFFFF" fill-opacity="1.000000" fill-rule="evenodd"/>
	<path id="Vector" d="M13.04 7.14C13.07 6.74 13.07 6.33 13.03 5.92C13 5.5 12.92 5.1 12.81 4.71C12.69 4.32 12.54 3.93 12.35 3.56C12.16 3.19 11.94 2.85 11.69 2.53C11.44 2.2 11.16 1.9 10.85 1.63C10.54 1.35 10.21 1.11 9.86 0.91C9.51 0.7 9.14 0.52 8.75 0.38C8.35 0.24 7.96 0.14 7.55 0.07C7.15 0.01 6.74 -0.01 6.33 0C5.91 0.01 5.51 0.06 5.11 0.15C4.71 0.24 4.32 0.37 3.94 0.53C3.56 0.7 3.2 0.89 2.86 1.12C2.52 1.35 2.21 1.61 1.91 1.91C1.62 2.2 1.36 2.52 1.13 2.85C0.9 3.19 0.7 3.55 0.53 3.93C0.37 4.31 0.24 4.7 0.15 5.1C0.06 5.5 0.01 5.91 0 6.32C-0.01 6.74 0.01 7.15 0.07 7.55C0.14 7.95 0.24 8.35 0.38 8.74C0.52 9.13 0.7 9.5 0.9 9.86C1.11 10.21 1.35 10.54 1.63 10.85C1.9 11.16 2.2 11.44 2.53 11.69C2.85 11.94 3.19 12.16 3.57 12.35C3.94 12.54 4.32 12.69 4.71 12.81C5.1 12.92 5.5 13 5.92 13.03C6.33 13.07 6.74 13.07 7.15 13.03C7.56 13 7.96 12.92 8.36 12.8C8.76 12.68 9.14 12.53 9.5 12.35C9.81 12.19 10.11 12 10.4 11.79L13.67 15.06C13.71 15.11 13.76 15.15 13.82 15.19C13.87 15.22 13.93 15.25 13.99 15.28C14.05 15.3 14.11 15.32 14.18 15.34C14.24 15.35 14.3 15.36 14.37 15.36C14.43 15.36 14.5 15.35 14.56 15.34C14.63 15.32 14.69 15.3 14.75 15.28C14.81 15.25 14.87 15.22 14.92 15.19C14.97 15.15 15.02 15.11 15.07 15.06C15.12 15.02 15.16 14.97 15.19 14.91C15.23 14.86 15.26 14.8 15.29 14.74C15.31 14.68 15.33 14.62 15.34 14.56C15.35 14.49 15.36 14.43 15.36 14.36C15.36 14.3 15.35 14.23 15.34 14.17C15.33 14.11 15.31 14.04 15.29 13.98C15.26 13.92 15.23 13.87 15.19 13.81C15.16 13.76 15.12 13.71 15.07 13.66L11.8 10.39C12.01 10.11 12.19 9.81 12.35 9.5C12.54 9.13 12.69 8.75 12.8 8.35C12.92 7.95 13 7.55 13.04 7.14ZM11.53 10.41C12.52 9.14 12.99 7.54 12.84 5.93C12.68 4.33 11.93 2.84 10.72 1.78C9.51 0.71 7.94 0.15 6.33 0.2C4.72 0.25 3.19 0.91 2.05 2.05C0.91 3.19 0.25 4.72 0.2 6.33C0.15 7.94 0.71 9.51 1.78 10.72C2.85 11.93 4.33 12.68 5.94 12.83C7.54 12.99 9.14 12.52 10.42 11.53L10.45 11.56L13.81 14.92C13.88 15 13.97 15.05 14.07 15.09C14.16 15.13 14.27 15.16 14.37 15.16C14.47 15.16 14.58 15.13 14.67 15.09C14.77 15.05 14.86 15 14.93 14.92C15 14.85 15.06 14.76 15.1 14.67C15.14 14.57 15.16 14.47 15.16 14.36C15.16 14.26 15.14 14.16 15.1 14.06C15.06 13.96 15 13.88 14.93 13.8L11.57 10.44C11.56 10.43 11.55 10.42 11.53 10.41ZM9.89 3.17C10.34 3.61 10.69 4.13 10.94 4.71C11.18 5.29 11.31 5.91 11.31 6.53C11.31 7.16 11.19 7.78 10.95 8.36C10.71 8.94 10.36 9.47 9.92 9.91C9.47 10.36 8.95 10.71 8.37 10.95C7.79 11.18 7.17 11.31 6.54 11.3C5.91 11.3 5.29 11.17 4.72 10.93C4.14 10.69 3.61 10.33 3.17 9.88C2.29 8.99 1.8 7.79 1.81 6.53C1.81 5.28 2.31 4.08 3.2 3.19C4.09 2.31 5.29 1.81 6.54 1.8C7.79 1.8 9 2.29 9.89 3.17ZM10.33 4C10.49 4.24 10.63 4.51 10.75 4.79C10.87 5.07 10.96 5.35 11.02 5.64C11.08 5.93 11.11 6.23 11.11 6.54C11.11 6.84 11.08 7.14 11.03 7.43C10.97 7.72 10.88 8.01 10.77 8.29C10.65 8.57 10.51 8.83 10.35 9.08C10.18 9.33 9.99 9.56 9.78 9.77C9.56 9.99 9.33 10.18 9.08 10.34C8.84 10.51 8.57 10.65 8.29 10.76C8.01 10.88 7.73 10.96 7.43 11.02C7.14 11.08 6.84 11.1 6.54 11.1C6.24 11.1 5.94 11.07 5.65 11.01C5.36 10.95 5.07 10.86 4.79 10.75C4.51 10.63 4.25 10.49 4 10.32C3.76 10.15 3.53 9.96 3.32 9.74C3.11 9.53 2.92 9.3 2.76 9.05C2.6 8.81 2.46 8.55 2.35 8.27C2.23 7.99 2.15 7.71 2.09 7.42C2.04 7.13 2.01 6.84 2.01 6.54C2.01 6.23 2.04 5.94 2.1 5.65C2.16 5.36 2.24 5.08 2.36 4.8C2.47 4.53 2.61 4.27 2.78 4.02C2.94 3.78 3.13 3.55 3.34 3.34C3.55 3.12 3.78 2.94 4.03 2.77C4.27 2.61 4.53 2.47 4.81 2.35C5.09 2.24 5.37 2.15 5.66 2.09C5.95 2.03 6.24 2 6.54 2C6.84 2 7.14 2.03 7.42 2.09C7.71 2.14 8 2.23 8.28 2.34C8.55 2.45 8.82 2.59 9.06 2.75C9.31 2.91 9.54 3.1 9.75 3.31C9.97 3.52 10.16 3.75 10.33 4Z" fill="#FFFFFF" fill-opacity="1.000000" fill-rule="evenodd"/>
</svg>
