<svg width="18.165161" height="21.083023" viewBox="0 0 18.1652 21.083" fill="none" xmlns="http://www.w3.org/2000/svg" xmlns:xlink="http://www.w3.org/1999/xlink">
	<desc>
			Created with Pixso.
	</desc>
	<defs/>
	<path id="Vector" d="M4.08 7L4.08 5C4.08 3.67 4.15 1.93 5.08 1C6.01 0.06 7.76 0 9.08 0C10.39 0 12.15 0.06 13.08 1C14.01 1.93 14.08 3.67 14.08 5L14.08 7L17.08 7C17.34 7 17.89 6.81 18.08 7C18.26 7.18 18.08 7.73 18.08 8L18.08 20C18.08 20.26 18.26 20.81 18.08 21C17.89 21.18 17.34 21 17.08 21L1.08 21C0.81 21 0.26 21.18 0.08 21C-0.11 20.81 0.08 20.26 0.08 20L0.08 8C0.08 7.73 -0.11 7.18 0.08 7C0.26 6.81 0.81 7 1.08 7L4.08 7ZM4.08 9L2.08 9L2.08 19L16.08 19L16.08 9L14.08 9L14.08 11L12.08 11L12.08 9L6.08 9L6.08 11L4.08 11L4.08 9ZM6.08 7L12.08 7L12.08 5C12.08 4.2 11.64 3.56 11.08 3C10.52 2.43 9.87 2 9.08 2C8.29 2 7.64 2.43 7.08 3C6.52 3.56 6.08 4.2 6.08 5L6.08 7Z" fill="#C4C4C4" fill-opacity="1.000000" fill-rule="nonzero"/>
</svg>
