<svg width="194.212769" height="25.558594" viewBox="0 0 194.213 25.5586" fill="none" xmlns="http://www.w3.org/2000/svg" xmlns:xlink="http://www.w3.org/1999/xlink">
	<desc>
			Created with Pixso.
	</desc>
	<defs/>
	<path id="Вело-сити" d="M20.22 14.3Q18.96 12.74 16.55 12.09Q18.06 11.45 18.97 10.34Q19.15 10.12 19.3 9.89Q19.42 9.72 19.52 9.54Q20.26 8.21 20.26 6.47Q20.26 4.71 19.49 3.41Q18.91 2.42 17.88 1.69Q15.51 0 11.26 0L0 0L0 25.19L11.94 25.19Q16.59 25.19 19.03 23.36Q20.02 22.62 20.61 21.64Q21.48 20.18 21.48 18.21Q21.48 16.28 20.63 14.89Q20.44 14.58 20.22 14.3ZM10.86 10.76L4.6 10.76L4.6 3.59L10.86 3.59Q13.13 3.59 14.32 4.51Q14.67 4.78 14.92 5.12Q15.51 5.95 15.51 7.19Q15.51 8.44 14.91 9.26Q14.67 9.6 14.32 9.87Q13.13 10.76 10.86 10.76ZM44.24 17.02Q44.31 16.16 44.31 15.69Q44.31 12.74 43.06 10.49Q42.39 9.27 41.44 8.35Q40.62 7.57 39.6 7Q39.35 6.86 39.09 6.73Q37.08 5.75 34.59 5.75Q32.22 5.75 30.25 6.63Q29.85 6.81 29.47 7.02Q28.32 7.66 27.42 8.55Q26.55 9.42 25.93 10.52Q25.68 10.97 25.48 11.43Q24.65 13.32 24.65 15.58Q24.65 17.92 25.54 19.85Q25.73 20.27 25.96 20.68Q26.44 21.49 27.06 22.17Q28.15 23.38 29.69 24.19Q32.11 25.45 35.27 25.45Q37.76 25.45 39.74 24.66Q41.18 24.07 42.26 23.09Q42.66 22.73 43.01 22.31L40.6 19.54Q39.85 20.3 38.96 20.78Q37.4 21.62 35.38 21.62Q33.12 21.62 31.52 20.6Q31.37 20.5 31.22 20.39Q30.51 19.86 30.03 19.17Q29.38 18.24 29.15 17.02L44.24 17.02ZM76.32 24.47Q78.45 25.45 81.03 25.45Q83.77 25.45 85.98 24.37Q86.15 24.28 86.32 24.19Q87.65 23.47 88.66 22.42Q89.4 21.64 89.97 20.68Q90.21 20.25 90.41 19.81Q91.28 17.89 91.28 15.58Q91.28 13.26 90.4 11.34Q90.21 10.91 89.97 10.51Q89.42 9.58 88.71 8.83Q87.69 7.75 86.32 7.02Q86.13 6.91 85.93 6.82Q83.74 5.75 81.03 5.75Q78.48 5.75 76.37 6.72Q76.07 6.86 75.77 7.02Q74.41 7.75 73.4 8.81Q72.67 9.57 72.12 10.51Q71.89 10.89 71.7 11.3Q70.81 13.23 70.81 15.58Q70.81 17.92 71.69 19.85Q71.88 20.27 72.12 20.68Q72.69 21.65 73.45 22.44Q74.45 23.47 75.77 24.19Q76.04 24.34 76.32 24.47ZM113.97 24.34Q116.23 25.45 119.04 25.45Q121.85 25.45 123.99 24.28Q125.12 23.66 125.96 22.77Q126.72 21.97 127.25 20.95L123.79 18.93Q123.07 20.09 122.03 20.75Q121.88 20.84 121.72 20.93Q121.37 21.12 120.99 21.25Q120.06 21.59 119 21.59Q117.29 21.59 115.99 20.86Q115.35 20.49 114.81 19.95Q114.45 19.59 114.17 19.18Q113.18 17.71 113.18 15.58Q113.18 13.49 114.14 12.05Q114.44 11.6 114.83 11.21Q115.45 10.59 116.19 10.21Q117.43 9.57 119 9.57Q120.03 9.57 120.95 9.89Q121.35 10.03 121.72 10.23Q121.9 10.33 122.06 10.44Q123.08 11.09 123.79 12.23L127.25 10.22Q126.73 9.18 125.96 8.37Q125.14 7.5 124.02 6.9Q121.89 5.75 119.04 5.75Q116.06 5.75 113.73 6.98Q113.69 7 113.66 7.02Q112.27 7.76 111.24 8.84Q110.52 9.59 109.97 10.51Q109.72 10.93 109.51 11.38Q108.64 13.28 108.64 15.58Q108.64 17.87 109.5 19.77Q109.71 20.23 109.97 20.68Q110.51 21.59 111.22 22.34Q112.27 23.44 113.68 24.19Q113.82 24.27 113.97 24.34ZM66.41 25.19L66.41 5.97L50.86 5.97L50.53 13.39Q50.39 16.23 50.19 17.76Q50 19.29 49.31 20.39Q49.01 20.87 48.58 21.14Q48.02 21.48 47.25 21.48Q46.89 21.48 46.39 21.38L46.18 25.16Q47.66 25.55 48.66 25.55Q50.06 25.55 51.07 24.93Q51.62 24.59 52.06 24.06Q53.31 22.57 53.83 19.99Q54.35 17.41 54.53 13.6L54.71 9.79L61.91 9.79L61.91 25.19L66.41 25.19ZM135.71 5.97L131.21 5.97L131.21 25.19L135.35 25.19L145.93 12.52L145.93 25.19L150.43 25.19L150.43 5.97L146.33 5.97L135.71 18.65L135.71 5.97ZM164.98 9.79L171.71 9.79L171.71 5.97L153.71 5.97L153.71 9.79L160.48 9.79L160.48 25.19L164.98 25.19L164.98 9.79ZM179.49 5.97L174.99 5.97L174.99 25.19L179.13 25.19L189.71 12.52L189.71 25.19L194.21 25.19L194.21 5.97L190.1 5.97L179.49 18.65L179.49 5.97ZM31.92 9.97Q33.09 9.36 34.59 9.36Q36.16 9.36 37.36 10.02Q37.84 10.29 38.26 10.66Q38.79 11.12 39.17 11.69Q39.84 12.7 40.03 14.03L29.12 14.03Q29.33 12.6 30.08 11.56Q30.44 11.05 30.93 10.64Q31.39 10.24 31.92 9.97ZM83.78 20.95Q82.57 21.59 81.03 21.59Q79.47 21.59 78.26 20.94Q77.54 20.55 76.94 19.94Q76.58 19.57 76.31 19.15Q75.34 17.68 75.34 15.58Q75.34 13.49 76.3 12.03Q76.58 11.6 76.94 11.23Q77.54 10.6 78.28 10.21Q79.48 9.57 81.03 9.57Q82.56 9.57 83.76 10.2Q84.51 10.59 85.13 11.23Q85.52 11.62 85.81 12.08Q86.75 13.53 86.75 15.58Q86.75 17.65 85.8 19.11Q85.51 19.55 85.13 19.94Q84.52 20.56 83.78 20.95ZM104.93 13.31L95.03 13.31L95.03 17.05L104.93 17.05L104.93 13.31ZM16.11 20.07Q14.96 21.59 11.8 21.59L4.6 21.59L4.6 14.18L11.8 14.18Q15.01 14.18 16.15 15.72Q16.76 16.55 16.76 17.85Q16.76 19.2 16.11 20.07Z" fill="#FFFFFF" fill-opacity="1.000000" fill-rule="evenodd"/>
</svg>
