<svg xmlns="http://www.w3.org/2000/svg" viewBox="0 9.050000190734863 231.1999969482422 49.45000076293945" data-asc="0.968" width="231.1999969482422" height="49.45000076293945"><defs/><g><g fill="$colorLightfff"><g transform="translate(0, 0)"><path d="M8.10 48.40L0 13.40L8.35 13.40L15.40 44.45L10.15 44.45L29.85 13.40L38.25 13.40L16.10 48.40L8.10 48.40ZM48.70 48.80Q44.50 48.80 41.43 47.30Q38.35 45.80 36.65 43.10Q34.95 40.40 34.95 36.75Q34.95 32.25 36.98 28.72Q39 25.20 42.58 23.15Q46.15 21.10 50.80 21.10Q54.75 21.10 57.60 22.57Q60.45 24.05 62.03 26.67Q63.60 29.30 63.60 32.95Q63.60 34 63.48 35.05Q63.35 36.10 63.15 37.05L40.90 37.05L41.70 32.50L59.50 32.50L56.30 33.90Q56.70 31.65 56.05 30.12Q55.40 28.60 53.95 27.77Q52.50 26.95 50.45 26.95Q47.90 26.95 46.13 28.17Q44.35 29.40 43.45 31.55Q42.55 33.70 42.55 36.40Q42.55 39.50 44.28 41.02Q46 42.55 49.50 42.55Q51.55 42.55 53.45 41.90Q55.35 41.25 56.70 40.05L59.95 45.20Q57.60 47.05 54.68 47.92Q51.75 48.80 48.70 48.80ZM65.80 48.40L73.20 11.30L81.00 11.30L73.60 48.40L65.80 48.40ZM94.90 48.80Q90.80 48.80 87.75 47.30Q84.70 45.80 83.03 43.10Q81.35 40.40 81.35 36.75Q81.35 32.25 83.45 28.72Q85.55 25.20 89.23 23.15Q92.90 21.10 97.60 21.10Q101.75 21.10 104.78 22.60Q107.80 24.10 109.48 26.77Q111.15 29.45 111.15 33.15Q111.15 37.60 109.05 41.15Q106.95 44.70 103.30 46.75Q99.65 48.80 94.90 48.80M95.40 42.40Q97.70 42.40 99.48 41.27Q101.25 40.15 102.25 38.15Q103.25 36.15 103.25 33.50Q103.25 30.80 101.65 29.15Q100.05 27.50 97.15 27.50Q94.85 27.50 93.08 28.62Q91.30 29.75 90.28 31.75Q89.25 33.75 89.25 36.40Q89.25 39.15 90.85 40.77Q92.45 42.40 95.40 42.40ZM114.70 37.45L115.95 31.20L130.10 31.20L128.85 37.45L114.70 37.45ZM147.05 48.80Q142.90 48.80 139.83 47.30Q136.75 45.80 135.05 43.10Q133.35 40.40 133.35 36.75Q133.35 32.25 135.45 28.72Q137.55 25.20 141.25 23.15Q144.95 21.10 149.75 21.10Q154.05 21.10 157.20 22.87Q160.35 24.65 161.85 27.90L155.25 31.20Q154.40 29.30 152.88 28.42Q151.35 27.55 149.25 27.55Q146.95 27.55 145.15 28.67Q143.35 29.80 142.30 31.77Q141.25 33.75 141.25 36.35Q141.25 39.10 142.88 40.72Q144.50 42.35 147.50 42.35Q149.55 42.35 151.25 41.47Q152.95 40.60 154.10 38.75L159.85 42.35Q157.95 45.40 154.58 47.10Q151.20 48.80 147.05 48.80ZM162.40 48.40L167.75 21.50L175.50 21.50L170.15 48.40L162.40 48.40M172.95 17.75Q170.90 17.75 169.65 16.57Q168.40 15.40 168.40 13.70Q168.40 11.70 169.83 10.38Q171.25 9.05 173.55 9.05Q175.60 9.05 176.88 10.17Q178.15 11.30 178.15 12.95Q178.15 15.10 176.73 16.42Q175.30 17.75 172.95 17.75ZM188.35 48.80Q185.45 48.80 183.40 47.63Q181.35 46.45 180.48 44.23Q179.60 42 180.20 38.95L184.85 15.55L192.65 15.55L188.00 38.90Q187.70 40.60 188.35 41.60Q189.00 42.60 190.75 42.60Q191.55 42.60 192.38 42.35Q193.20 42.10 193.90 41.65L195.05 47.20Q193.60 48.10 191.85 48.45Q190.10 48.80 188.35 48.80M178.20 28.10L179.40 22.10L198.05 22.10L196.85 28.10L178.20 28.10ZM201.00 58.50Q198.95 58.50 196.93 57.85Q194.90 57.20 193.70 56.15L197.30 50.55Q198.15 51.30 199.23 51.75Q200.30 52.20 201.60 52.20Q203.10 52.20 204.23 51.45Q205.35 50.70 206.45 48.90L208.60 45.50L209.30 44.70L223.50 21.50L231.20 21.50L213.30 50.20Q211.30 53.35 209.48 55.17Q207.65 57 205.63 57.75Q203.60 58.50 201.00 58.50M206.95 49.45L200.50 21.50L208.30 21.50L213.20 44L206.95 49.45Z"/></g></g></g></svg>